<svg width="33" height="27" viewBox="0 0 33 27" fill="none" xmlns="http://www.w3.org/2000/svg">
<path d="M29.5887 6.63C29.6105 6.92167 29.6105 7.21167 29.6105 7.50167C29.6105 16.3767 22.8094 26.6033 10.3803 26.6033C6.55102 26.6033 2.9936 25.5017 0 23.5883C0.543681 23.65 1.06723 23.6717 1.63272 23.6717C4.67497 23.679 7.63108 22.6686 10.0245 20.8033C8.61403 20.778 7.24669 20.3158 6.11346 19.4812C4.98022 18.6467 4.13766 17.4815 3.70341 16.1483C4.12124 16.21 4.54074 16.2517 4.98039 16.2517C5.58616 16.2517 6.19528 16.1683 6.76078 16.0233C5.23001 15.7164 3.85355 14.8922 2.86543 13.6911C1.87732 12.49 1.33855 10.9861 1.34074 9.435V9.35167C2.24185 9.85 3.28726 10.1617 4.39476 10.2033C3.46696 9.59098 2.70619 8.76004 2.18033 7.78465C1.65447 6.80926 1.37986 5.71976 1.38102 4.61333C1.38102 3.36667 1.71494 2.22333 2.30058 1.22667C3.99897 3.3017 6.11726 4.99927 8.51824 6.20943C10.9192 7.41959 13.5493 8.11536 16.2383 8.25167C16.1342 7.75167 16.0705 7.23333 16.0705 6.71333C16.07 5.8316 16.2446 4.95843 16.5841 4.14373C16.9236 3.32904 17.4215 2.58879 18.0492 1.96531C18.6769 1.34184 19.4222 0.847352 20.2425 0.510131C21.0627 0.172909 21.9418 -0.000437299 22.8296 8.28438e-07C24.7761 8.28438e-07 26.533 0.81 27.768 2.12C29.2812 1.82936 30.7323 1.2807 32.0571 0.498334C31.5527 2.04969 30.4961 3.36517 29.0853 4.19833C30.4273 4.0463 31.739 3.69575 32.9766 3.15833C32.0522 4.49683 30.9068 5.67057 29.5887 6.63Z" fill="#AD1AAF"/>
</svg>
