<svg width="38" height="27" viewBox="0 0 38 27" fill="none" xmlns="http://www.w3.org/2000/svg">
<path d="M37.0137 4.13064C36.7987 3.33827 36.3785 2.61565 35.7949 2.0347C35.2113 1.45376 34.4848 1.03475 33.6875 0.819389C30.7312 0.0131389 18.9043 1.42435e-05 18.9043 1.42435e-05C18.9043 1.42435e-05 7.07919 -0.0131111 4.12103 0.757514C3.32425 0.982788 2.59914 1.40772 2.01533 1.99152C1.43153 2.57531 1.00862 3.29837 0.787208 4.09126C0.00755424 7.02751 2.76587e-06 13.1175 2.76587e-06 13.1175C2.76587e-06 13.1175 -0.00754833 19.2375 0.766442 22.1438C1.20063 23.7506 2.47489 25.02 4.0946 25.4531C7.08107 26.2594 18.8759 26.2725 18.8759 26.2725C18.8759 26.2725 30.7029 26.2856 33.6592 25.5169C34.4567 25.3019 35.184 24.8839 35.769 24.3041C36.3541 23.7243 36.7766 23.003 36.9949 22.2113C37.7764 19.2769 37.7821 13.1888 37.7821 13.1888C37.7821 13.1888 37.8198 7.06689 37.0137 4.13064ZM15.1211 18.7594L15.1306 7.50939L24.9603 13.1438L15.1211 18.7594Z" fill="#AD1AAF"/>
</svg>
